<svg width="281" height="565" viewBox="0 0 281 565" fill="none" xmlns="http://www.w3.org/2000/svg">
<mask id="mask0_76_2808" style="mask-type:alpha" maskUnits="userSpaceOnUse" x="0" y="0" width="281" height="204">
<rect x="0.503906" width="280.044" height="204" fill="white" fill-opacity="0.1"/>
</mask>
<g mask="url(#mask0_76_2808)">
<path d="M91.0266 200.644C77.8697 200.644 66.5771 197.315 57.1488 190.656C47.7738 183.945 40.5561 174.277 35.4957 161.652C30.4886 148.975 27.9851 133.714 27.9851 115.869C28.0384 98.025 30.5685 82.8439 35.5756 70.3261C40.636 57.7551 47.8537 48.167 57.2287 41.5619C66.657 34.9568 77.9229 31.6542 91.0266 31.6542C104.13 31.6542 115.396 34.9568 124.825 41.5619C134.253 48.167 141.471 57.7551 146.478 70.3261C151.538 82.8971 154.068 98.0783 154.068 115.869C154.068 133.767 151.538 149.055 146.478 161.732C141.471 174.357 134.253 183.998 124.825 190.656C115.45 197.315 104.184 200.644 91.0266 200.644ZM91.0266 175.635C101.254 175.635 109.324 170.601 115.237 160.534C121.202 150.413 124.185 135.525 124.185 115.869C124.185 102.872 122.827 91.9525 120.11 83.1102C117.394 74.2679 113.559 67.6095 108.605 63.1351C103.651 58.6074 97.7916 56.3435 91.0266 56.3435C80.8526 56.3435 72.8093 61.4039 66.8967 71.5246C60.984 81.5921 58.0011 96.3737 57.9478 115.869C57.8945 128.92 59.1996 139.893 61.8629 148.788C64.5795 157.684 68.4148 164.396 73.3686 168.923C78.3224 173.398 84.2085 175.635 91.0266 175.635ZM240.422 33.8915V197.528H210.779V62.7356H209.82L171.548 87.1851V60.019L212.217 33.8915H240.422Z" fill="white"/>
</g>
<mask id="mask1_76_2808" style="mask-type:alpha" maskUnits="userSpaceOnUse" x="0" y="215" width="281" height="110">
<rect x="0.503906" y="215.942" width="280.146" height="108.285" fill="#C4C4C4"/>
</mask>
<g mask="url(#mask1_76_2808)">
<path d="M95.9577 383.316C82.8292 383.316 71.561 379.994 62.1531 373.35C52.7984 366.653 45.5964 357.006 40.5469 344.409C35.5507 331.759 33.0525 316.531 33.0525 298.725C33.1057 280.919 35.6304 265.771 40.6267 253.28C45.6761 240.736 52.8782 231.169 62.2329 224.578C71.6407 217.987 82.8823 214.692 95.9577 214.692C109.033 214.692 120.275 217.987 129.683 224.578C139.09 231.169 146.292 240.736 151.289 253.28C156.338 265.824 158.863 280.972 158.863 298.725C158.863 316.584 156.338 331.838 151.289 344.489C146.292 357.086 139.09 366.706 129.683 373.35C120.328 379.994 109.086 383.316 95.9577 383.316ZM95.9577 358.361C106.163 358.361 114.215 353.338 120.115 343.293C126.068 333.194 129.045 318.338 129.045 298.725C129.045 285.756 127.689 274.86 124.979 266.036C122.268 257.213 118.441 250.569 113.498 246.105C108.555 241.587 102.708 239.328 95.9577 239.328C85.8057 239.328 77.7798 244.377 71.8799 254.476C65.9801 264.522 63.0036 279.271 62.9504 298.725C62.8973 311.747 64.1995 322.696 66.8571 331.573C69.5678 340.449 73.3948 347.146 78.3379 351.664C83.281 356.129 89.1543 358.361 95.9577 358.361ZM158.411 380.207V358.84L215.097 303.269C220.519 297.795 225.037 292.931 228.651 288.679C232.265 284.427 234.976 280.308 236.783 276.321C238.59 272.335 239.494 268.083 239.494 263.565C239.494 258.409 238.325 253.998 235.986 250.33C233.647 246.609 230.432 243.739 226.339 241.72C222.246 239.7 217.595 238.69 212.386 238.69C207.018 238.69 202.314 239.806 198.275 242.038C194.235 244.218 191.099 247.327 188.867 251.367C186.688 255.406 185.598 260.216 185.598 265.797H157.454C157.454 255.433 159.819 246.423 164.55 238.77C169.28 231.116 175.791 225.189 184.083 220.99C192.428 216.791 201.995 214.692 212.785 214.692C223.734 214.692 233.355 216.738 241.647 220.831C249.938 224.924 256.37 230.531 260.941 237.653C265.565 244.776 267.877 252.908 267.877 262.05C267.877 268.163 266.708 274.169 264.369 280.069C262.03 285.968 257.911 292.506 252.011 299.682C246.164 306.857 237.952 315.547 227.375 325.753L199.231 354.375V355.491H270.349V380.207H158.411Z" fill="white" fill-opacity="0.1"/>
</g>
<mask id="mask2_76_2808" style="mask-type:alpha" maskUnits="userSpaceOnUse" x="0" y="336" width="281" height="109">
<rect x="0.503906" y="336.169" width="280.146" height="108.285" fill="#C4C4C4"/>
</mask>
<g mask="url(#mask2_76_2808)">
<path d="M93.0593 503.316C79.9308 503.316 68.6626 499.994 59.2548 493.35C49.9 486.653 42.698 477.006 37.6485 464.409C32.6523 451.759 30.1541 436.531 30.1541 418.725C30.2073 400.919 32.732 385.771 37.7283 373.28C42.7777 360.736 49.9798 351.169 59.3345 344.578C68.7423 337.987 79.984 334.692 93.0593 334.692C106.135 334.692 117.376 337.987 126.784 344.578C136.192 351.169 143.394 360.736 148.39 373.28C153.44 385.824 155.964 400.972 155.964 418.725C155.964 436.584 153.44 451.839 148.39 464.489C143.394 477.086 136.192 486.706 126.784 493.35C117.429 499.994 106.188 503.316 93.0593 503.316ZM93.0593 478.361C103.264 478.361 111.317 473.339 117.217 463.293C123.17 453.194 126.146 438.338 126.146 418.725C126.146 405.756 124.791 394.86 122.08 386.037C119.369 377.213 115.543 370.57 110.599 366.105C105.656 361.587 99.8096 359.328 93.0593 359.328C82.9073 359.328 74.8814 364.377 68.9815 374.476C63.0817 384.522 60.1052 399.271 60.052 418.725C59.9989 431.747 61.3011 442.697 63.9587 451.573C66.6694 460.449 70.4964 467.146 75.4395 471.664C80.3826 476.129 86.2559 478.361 93.0593 478.361ZM214.112 502.439C202.631 502.439 192.426 500.473 183.497 496.539C174.62 492.606 167.604 487.131 162.449 480.115C157.293 473.099 154.556 464.994 154.237 455.798H184.214C184.48 460.21 185.942 464.064 188.599 467.359C191.257 470.601 194.792 473.126 199.203 474.933C203.615 476.74 208.558 477.644 214.033 477.644C219.879 477.644 225.062 476.634 229.579 474.614C234.097 472.541 237.632 469.671 240.183 466.004C242.735 462.336 243.984 458.111 243.93 453.327C243.984 448.384 242.708 444.025 240.104 440.252C237.499 436.478 233.725 433.528 228.782 431.402C223.892 429.276 217.992 428.213 211.083 428.213H196.652V405.411H211.083C216.77 405.411 221.74 404.427 225.992 402.461C230.297 400.494 233.672 397.73 236.117 394.169C238.562 390.555 239.758 386.382 239.705 381.652C239.758 377.027 238.722 373.015 236.595 369.613C234.523 366.158 231.573 363.474 227.746 361.56C223.972 359.647 219.534 358.69 214.431 358.69C209.435 358.69 204.811 359.594 200.559 361.401C196.306 363.208 192.878 365.786 190.274 369.134C187.669 372.43 186.287 376.363 186.128 380.934H157.665C157.878 371.792 160.509 363.766 165.558 356.856C170.661 349.893 177.464 344.472 185.968 340.592C194.473 336.659 204.013 334.692 214.591 334.692C225.487 334.692 234.948 336.738 242.974 340.831C251.053 344.871 257.298 350.319 261.71 357.175C266.121 364.032 268.327 371.606 268.327 379.898C268.38 389.093 265.67 396.8 260.195 403.019C254.773 409.237 247.651 413.304 238.828 415.217V416.493C250.309 418.087 259.105 422.339 265.218 429.249C271.383 436.106 274.44 444.637 274.386 454.842C274.386 463.984 271.782 472.169 266.573 479.398C261.417 486.573 254.295 492.207 245.206 496.3C236.17 500.393 225.806 502.439 214.112 502.439Z" fill="white" fill-opacity="0.05"/>
</g>
<mask id="mask3_76_2808" style="mask-type:alpha" maskUnits="userSpaceOnUse" x="0" y="456" width="281" height="109">
<rect x="0.503906" y="456.396" width="280.146" height="108.285" fill="url(#paint0_linear_76_2808)"/>
</mask>
<g mask="url(#mask3_76_2808)">
<path d="M95.1962 624.109C82.0677 624.109 70.7995 620.787 61.3916 614.143C52.0369 607.446 44.8348 597.799 39.7854 585.202C34.7891 572.552 32.291 557.324 32.291 539.518C32.3442 521.712 34.8689 506.564 39.8651 494.073C44.9146 481.53 52.1166 471.962 61.4713 465.372C70.8792 458.781 82.1208 455.485 95.1962 455.485C108.272 455.485 119.513 458.781 128.921 465.372C138.329 471.962 145.531 481.53 150.527 494.073C155.577 506.617 158.101 521.766 158.101 539.518C158.101 557.377 155.577 572.632 150.527 585.282C145.531 597.879 138.329 607.499 128.921 614.143C119.566 620.787 108.325 624.109 95.1962 624.109ZM95.1962 599.155C105.401 599.155 113.454 594.132 119.354 584.086C125.307 573.987 128.283 559.131 128.283 539.518C128.283 526.549 126.928 515.653 124.217 506.83C121.506 498.007 117.679 491.363 112.736 486.898C107.793 482.38 101.946 480.121 95.1962 480.121C85.0442 480.121 77.0183 485.171 71.1184 495.269C65.2186 505.315 62.2421 520.065 62.1889 539.518C62.1357 552.54 63.438 563.49 66.0956 572.366C68.8063 581.242 72.6332 587.94 77.5763 592.457C82.5195 596.922 88.3927 599.155 95.1962 599.155ZM154.699 590.703V567.184L223.983 457.718H243.596V491.203H231.637L184.996 565.111V566.387H281.706V590.703H154.699ZM232.593 621V583.528L232.912 573.004V457.718H260.817V621H232.593Z" fill="white" fill-opacity="0.02"/>
</g>
<defs>
<linearGradient id="paint0_linear_76_2808" x1="140.577" y1="456.396" x2="140.577" y2="564.681" gradientUnits="userSpaceOnUse">
<stop offset="0.750004" stop-color="#C4C4C4"/>
<stop offset="1" stop-color="#C4C4C4" stop-opacity="0"/>
</linearGradient>
</defs>
</svg>
